<?xml version="1.0" standalone="no"?>
<!DOCTYPE svg PUBLIC "-//W3C//DTD SVG 20010904//EN"
 "http://www.w3.org/TR/2001/REC-SVG-20010904/DTD/svg10.dtd">
<svg version="1.0" xmlns="http://www.w3.org/2000/svg"
 width="842.000000pt" height="596.000000pt" viewBox="0 0 842.000000 596.000000"
 preserveAspectRatio="xMidYMid meet">

<g transform="translate(0.000000,596.000000) scale(0.100000,-0.100000)"
fill="#000000" stroke="none">
<path d="M0 2980 l0 -2980 4210 0 4210 0 0 2980 0 2980 -4210 0 -4210 0 0
-2980z m5268 1702 c58 -31 114 -88 143 -148 l24 -49 3 -763 c3 -844 5 -812
-61 -899 -38 -49 -106 -96 -162 -112 -56 -15 -1613 -15 -1652 0 -99 40 -159
85 -191 145 -42 79 -42 73 -39 869 l2 760 27 50 c42 79 104 134 183 163 21 7
280 10 855 9 l825 -2 43 -23z"/>
<path d="M4580 4294 c52 -52 157 -154 233 -226 l137 -130 0 226 0 226 -232 0
-233 0 95 -96z"/>
<path d="M4167 4363 c-69 -11 -172 -46 -187 -62 -3 -4 -22 -15 -42 -25 -21
-10 -35 -23 -32 -28 3 -4 11 -5 17 -2 8 5 8 3 0 -7 -15 -16 -17 -33 -3 -24 6
4 11 -8 12 -27 0 -18 2 -40 2 -48 1 -8 -3 -18 -8 -22 -6 -4 -3 -17 7 -32 9
-14 17 -34 17 -45 0 -11 6 -22 13 -24 9 -4 8 -8 -3 -16 -8 -5 -11 -13 -7 -17
4 -4 13 -2 19 4 7 7 16 12 22 12 5 0 -1 -9 -14 -20 -13 -12 -29 -19 -34 -17
-6 3 -12 -11 -13 -30 -1 -19 1 -32 5 -28 7 6 8 10 11 36 0 5 6 7 13 3 7 -4 8
-3 4 4 -4 7 -1 12 7 12 7 0 20 11 27 25 7 13 18 23 24 22 6 -1 10 4 8 11 -1 8
2 11 7 8 5 -3 14 0 20 8 6 7 39 26 74 42 55 25 73 29 157 28 65 0 106 -5 131
-16 l37 -16 48 49 49 50 -97 94 c-54 52 -106 98 -116 104 -24 13 -79 11 -175
-6z"/>
<path d="M3881 4218 c6 -12 6 -18 -1 -18 -5 0 -10 5 -10 11 0 5 -5 7 -11 3
-16 -9 9 -24 41 -24 22 1 23 2 7 11 -14 8 -15 14 -7 24 9 11 7 14 -8 12 -16
-1 -19 -5 -11 -19z"/>
<path d="M3814 4159 c-4 -7 -3 -9 4 -5 5 3 13 0 15 -6 4 -9 6 -10 6 -1 1 17
-16 25 -25 12z"/>
<path d="M3900 4150 c0 -5 5 -10 10 -10 6 0 10 5 10 10 0 6 -4 10 -10 10 -5 0
-10 -4 -10 -10z"/>
<path d="M3640 3878 c0 -7 -3 -23 -6 -35 -5 -19 -2 -23 18 -23 13 0 48 -7 77
-16 46 -13 51 -17 39 -31 -11 -15 -10 -16 7 -10 l20 7 -20 -16 -20 -16 20 6
c18 5 20 2 16 -46 -4 -71 -17 -80 -96 -76 -64 3 -64 3 -58 -22 12 -52 64 -173
93 -215 36 -52 78 -87 94 -78 6 4 4 -2 -4 -13 -8 -10 -11 -16 -6 -12 5 4 18
-4 29 -19 30 -38 128 -98 184 -112 26 -7 56 -17 65 -22 26 -13 32 -11 18 6 -8
10 -9 15 -2 15 6 0 16 -9 22 -20 9 -16 18 -19 57 -15 44 5 73 15 40 15 -8 0
-24 3 -34 6 -15 5 -15 4 -3 -5 18 -13 1 -15 -19 -2 -22 14 -1 18 113 20 60 1
113 4 118 7 4 3 9 17 9 32 1 16 5 7 10 -22 23 -139 146 -228 283 -203 200 35
258 288 94 407 -97 71 -222 59 -310 -30 -50 -50 -55 -52 -37 -17 33 61 105 99
203 105 66 4 76 1 136 -30 44 -23 74 -47 95 -76 29 -42 30 -48 30 -149 l0
-106 109 7 c61 4 111 8 113 10 2 2 8 52 13 111 8 86 7 113 -4 134 -8 14 -19
45 -25 68 -15 57 -39 77 -133 112 -135 52 -399 91 -615 91 l-91 0 -124 76
c-67 42 -150 90 -183 107 -33 18 -61 35 -63 40 -2 4 -8 7 -14 7 -5 0 -24 6
-41 14 -87 38 -217 58 -217 34z m1436 -439 c19 -16 18 -26 -7 -40 -17 -9 -33
-6 -85 18 -35 15 -64 32 -64 37 0 13 139 0 156 -15z m-379 -139 c-4 -33 -4
-60 0 -60 3 0 26 16 50 36 24 20 45 35 47 33 25 -38 37 -63 32 -74 -2 -7 -29
-21 -58 -31 l-53 -18 58 -24 c61 -27 67 -37 39 -72 -16 -19 -22 -21 -40 -11
-13 7 -20 16 -17 22 4 5 3 8 -2 7 -4 -1 -18 3 -31 10 -25 14 -54 6 -31 -9 8
-5 9 -9 4 -9 -6 0 -9 -19 -7 -45 4 -44 4 -45 -26 -45 -17 0 -34 5 -38 12 -4 6
-3 8 4 5 7 -5 9 7 6 33 -2 23 0 39 4 36 4 -2 6 11 4 30 -4 31 -2 34 22 34 32
0 51 31 36 60 -7 13 -21 20 -40 20 -32 0 -37 8 -17 29 10 11 10 13 0 7 -10 -5
-13 5 -13 38 l0 46 36 0 37 0 -6 -60z m-592 40 c-3 -5 -11 -10 -16 -10 -6 0
-7 5 -4 10 3 6 11 10 16 10 6 0 7 -4 4 -10z m55 6 c0 -3 -4 -8 -10 -11 -5 -3
-10 -1 -10 4 0 6 5 11 10 11 6 0 10 -2 10 -4z m-90 -30 c0 -3 -4 -8 -10 -11
-5 -3 -10 -1 -10 4 0 6 5 11 10 11 6 0 10 -2 10 -4z m-160 -32 c0 -8 -19 -13
-24 -6 -3 5 1 9 9 9 8 0 15 -2 15 -3z m517 -46 c-3 -7 -5 -2 -5 12 0 14 2 19
5 13 2 -7 2 -19 0 -25z m193 -14 c0 -3 -7 -1 -15 6 -8 7 -15 17 -15 22 0 5 7
3 15 -6 8 -8 15 -18 15 -22z m-25 -5 c11 -16 1 -19 -13 -3 -7 8 -8 14 -3 14 5
0 13 -5 16 -11z m32 -75 c-9 -10 -27 15 -21 31 7 17 8 16 16 -5 5 -13 7 -24 5
-26z"/>
<path d="M3632 3660 c0 -14 2 -19 5 -12 2 6 2 18 0 25 -3 6 -5 1 -5 -13z"/>
</g>
</svg>
